<mxfile host="app.diagrams.net" modified="2023-11-01T07:04:23.187Z" agent="Mozilla/5.0 (Macintosh; Intel Mac OS X 10_15_7) AppleWebKit/537.36 (KHTML, like Gecko) Chrome/118.0.0.0 Safari/537.36" etag="yn6UpNZqOLnezNtWifnx" version="22.0.0" type="github">
  <diagram name="第 1 页" id="yOFKsHwZiB2qJZKwS0m_">
    <mxGraphModel dx="2655" dy="1763" grid="1" gridSize="10" guides="1" tooltips="1" connect="1" arrows="1" fold="1" page="1" pageScale="1" pageWidth="827" pageHeight="1169" math="0" shadow="0">
      <root>
        <mxCell id="0" />
        <mxCell id="1" parent="0" />
        <mxCell id="tBhQljCuQdXT5H8_TQD0-1" value="&lt;b style=&quot;font-size: 23px;&quot;&gt;以数列 `{16,24,12,32,14,&lt;font style=&quot;font-size: 23px;&quot; color=&quot;#ff3333&quot;&gt;26&lt;/font&gt;,34,&lt;font style=&quot;font-size: 23px;&quot; color=&quot;#ff3333&quot;&gt;10&lt;/font&gt;,8,28,38.20}` 构建2-3树的过程&lt;/b&gt;" style="text;html=1;strokeColor=none;fillColor=none;align=center;verticalAlign=middle;whiteSpace=wrap;rounded=0;" vertex="1" parent="1">
          <mxGeometry x="260" y="180" width="910" height="30" as="geometry" />
        </mxCell>
        <mxCell id="tBhQljCuQdXT5H8_TQD0-2" value="&lt;font style=&quot;font-size: 16px;&quot; color=&quot;#ffffff&quot;&gt;| 16 |&lt;/font&gt;" style="rounded=0;whiteSpace=wrap;html=1;strokeColor=#3333FF;fillColor=#3333FF;" vertex="1" parent="1">
          <mxGeometry x="80" y="310" width="80" height="40" as="geometry" />
        </mxCell>
        <mxCell id="tBhQljCuQdXT5H8_TQD0-4" value="&lt;font style=&quot;font-size: 16px;&quot; color=&quot;#ffffff&quot;&gt;| 16 | 24 |&lt;/font&gt;" style="rounded=0;whiteSpace=wrap;html=1;strokeColor=#3333FF;fillColor=#3333FF;" vertex="1" parent="1">
          <mxGeometry x="270" y="310" width="80" height="40" as="geometry" />
        </mxCell>
        <mxCell id="tBhQljCuQdXT5H8_TQD0-5" value="&lt;font style=&quot;font-size: 16px;&quot; color=&quot;#ffffff&quot;&gt;| 16&amp;nbsp; |&lt;/font&gt;" style="rounded=0;whiteSpace=wrap;html=1;strokeColor=#3333FF;fillColor=#3333FF;" vertex="1" parent="1">
          <mxGeometry x="496" y="310" width="80" height="40" as="geometry" />
        </mxCell>
        <mxCell id="tBhQljCuQdXT5H8_TQD0-6" value="&lt;font style=&quot;font-size: 16px;&quot; color=&quot;#ffffff&quot;&gt;| 12 |&lt;/font&gt;" style="rounded=0;whiteSpace=wrap;html=1;strokeColor=#3333FF;fillColor=#3333FF;" vertex="1" parent="1">
          <mxGeometry x="440" y="380" width="80" height="40" as="geometry" />
        </mxCell>
        <mxCell id="tBhQljCuQdXT5H8_TQD0-7" value="&lt;font style=&quot;font-size: 16px;&quot; color=&quot;#ffffff&quot;&gt;| 24 |&lt;/font&gt;" style="rounded=0;whiteSpace=wrap;html=1;strokeColor=#3333FF;fillColor=#3333FF;" vertex="1" parent="1">
          <mxGeometry x="556" y="380" width="80" height="40" as="geometry" />
        </mxCell>
        <mxCell id="tBhQljCuQdXT5H8_TQD0-8" value="" style="endArrow=classic;html=1;rounded=0;exitX=0.25;exitY=1;exitDx=0;exitDy=0;entryX=0.5;entryY=0;entryDx=0;entryDy=0;" edge="1" parent="1" source="tBhQljCuQdXT5H8_TQD0-5" target="tBhQljCuQdXT5H8_TQD0-6">
          <mxGeometry width="50" height="50" relative="1" as="geometry">
            <mxPoint x="416" y="410" as="sourcePoint" />
            <mxPoint x="466" y="360" as="targetPoint" />
          </mxGeometry>
        </mxCell>
        <mxCell id="tBhQljCuQdXT5H8_TQD0-9" value="" style="endArrow=classic;html=1;rounded=0;exitX=0.75;exitY=1;exitDx=0;exitDy=0;entryX=0.5;entryY=0;entryDx=0;entryDy=0;" edge="1" parent="1" source="tBhQljCuQdXT5H8_TQD0-5" target="tBhQljCuQdXT5H8_TQD0-7">
          <mxGeometry width="50" height="50" relative="1" as="geometry">
            <mxPoint x="416" y="410" as="sourcePoint" />
            <mxPoint x="466" y="360" as="targetPoint" />
          </mxGeometry>
        </mxCell>
        <mxCell id="tBhQljCuQdXT5H8_TQD0-10" value="" style="shape=flexArrow;endArrow=classic;html=1;rounded=0;" edge="1" parent="1">
          <mxGeometry width="50" height="50" relative="1" as="geometry">
            <mxPoint x="180" y="329.5" as="sourcePoint" />
            <mxPoint x="245" y="329.5" as="targetPoint" />
          </mxGeometry>
        </mxCell>
        <mxCell id="tBhQljCuQdXT5H8_TQD0-11" value="" style="shape=flexArrow;endArrow=classic;html=1;rounded=0;" edge="1" parent="1">
          <mxGeometry width="50" height="50" relative="1" as="geometry">
            <mxPoint x="380" y="329.5" as="sourcePoint" />
            <mxPoint x="445" y="329.5" as="targetPoint" />
          </mxGeometry>
        </mxCell>
        <mxCell id="tBhQljCuQdXT5H8_TQD0-12" value="" style="shape=flexArrow;endArrow=classic;html=1;rounded=0;" edge="1" parent="1">
          <mxGeometry width="50" height="50" relative="1" as="geometry">
            <mxPoint x="660" y="329.38" as="sourcePoint" />
            <mxPoint x="725" y="329.38" as="targetPoint" />
          </mxGeometry>
        </mxCell>
        <mxCell id="tBhQljCuQdXT5H8_TQD0-13" value="&lt;font style=&quot;font-size: 16px;&quot; color=&quot;#ffffff&quot;&gt;| 16&amp;nbsp; |&lt;/font&gt;" style="rounded=0;whiteSpace=wrap;html=1;strokeColor=#3333FF;fillColor=#3333FF;" vertex="1" parent="1">
          <mxGeometry x="806" y="310" width="80" height="40" as="geometry" />
        </mxCell>
        <mxCell id="tBhQljCuQdXT5H8_TQD0-14" value="&lt;font style=&quot;font-size: 16px;&quot; color=&quot;#ffffff&quot;&gt;| 12 |&lt;/font&gt;" style="rounded=0;whiteSpace=wrap;html=1;strokeColor=#3333FF;fillColor=#3333FF;" vertex="1" parent="1">
          <mxGeometry x="750" y="380" width="80" height="40" as="geometry" />
        </mxCell>
        <mxCell id="tBhQljCuQdXT5H8_TQD0-15" value="&lt;font style=&quot;font-size: 16px;&quot; color=&quot;#ffffff&quot;&gt;| 24 | 32 |&lt;/font&gt;" style="rounded=0;whiteSpace=wrap;html=1;strokeColor=#3333FF;fillColor=#3333FF;" vertex="1" parent="1">
          <mxGeometry x="866" y="380" width="80" height="40" as="geometry" />
        </mxCell>
        <mxCell id="tBhQljCuQdXT5H8_TQD0-16" value="" style="endArrow=classic;html=1;rounded=0;exitX=0.25;exitY=1;exitDx=0;exitDy=0;entryX=0.5;entryY=0;entryDx=0;entryDy=0;" edge="1" parent="1" source="tBhQljCuQdXT5H8_TQD0-13" target="tBhQljCuQdXT5H8_TQD0-14">
          <mxGeometry width="50" height="50" relative="1" as="geometry">
            <mxPoint x="726" y="410" as="sourcePoint" />
            <mxPoint x="776" y="360" as="targetPoint" />
          </mxGeometry>
        </mxCell>
        <mxCell id="tBhQljCuQdXT5H8_TQD0-17" value="" style="endArrow=classic;html=1;rounded=0;exitX=0.75;exitY=1;exitDx=0;exitDy=0;entryX=0.5;entryY=0;entryDx=0;entryDy=0;" edge="1" parent="1" source="tBhQljCuQdXT5H8_TQD0-13" target="tBhQljCuQdXT5H8_TQD0-15">
          <mxGeometry width="50" height="50" relative="1" as="geometry">
            <mxPoint x="726" y="410" as="sourcePoint" />
            <mxPoint x="776" y="360" as="targetPoint" />
          </mxGeometry>
        </mxCell>
        <mxCell id="tBhQljCuQdXT5H8_TQD0-18" value="&lt;font style=&quot;font-size: 16px;&quot; color=&quot;#ffffff&quot;&gt;| 16&amp;nbsp; |&lt;/font&gt;" style="rounded=0;whiteSpace=wrap;html=1;strokeColor=#3333FF;fillColor=#3333FF;" vertex="1" parent="1">
          <mxGeometry x="1101" y="310" width="80" height="40" as="geometry" />
        </mxCell>
        <mxCell id="tBhQljCuQdXT5H8_TQD0-19" value="&lt;font style=&quot;font-size: 16px;&quot; color=&quot;#ffffff&quot;&gt;| 12 | 14 |&lt;/font&gt;" style="rounded=0;whiteSpace=wrap;html=1;strokeColor=#3333FF;fillColor=#3333FF;" vertex="1" parent="1">
          <mxGeometry x="1045" y="380" width="80" height="40" as="geometry" />
        </mxCell>
        <mxCell id="tBhQljCuQdXT5H8_TQD0-20" value="&lt;font style=&quot;font-size: 16px;&quot; color=&quot;#ffffff&quot;&gt;| 24 | 32 |&lt;/font&gt;" style="rounded=0;whiteSpace=wrap;html=1;strokeColor=#3333FF;fillColor=#3333FF;" vertex="1" parent="1">
          <mxGeometry x="1161" y="380" width="80" height="40" as="geometry" />
        </mxCell>
        <mxCell id="tBhQljCuQdXT5H8_TQD0-21" value="" style="endArrow=classic;html=1;rounded=0;exitX=0.25;exitY=1;exitDx=0;exitDy=0;entryX=0.5;entryY=0;entryDx=0;entryDy=0;" edge="1" parent="1" source="tBhQljCuQdXT5H8_TQD0-18" target="tBhQljCuQdXT5H8_TQD0-19">
          <mxGeometry width="50" height="50" relative="1" as="geometry">
            <mxPoint x="1021" y="410" as="sourcePoint" />
            <mxPoint x="1071" y="360" as="targetPoint" />
          </mxGeometry>
        </mxCell>
        <mxCell id="tBhQljCuQdXT5H8_TQD0-22" value="" style="endArrow=classic;html=1;rounded=0;exitX=0.75;exitY=1;exitDx=0;exitDy=0;entryX=0.5;entryY=0;entryDx=0;entryDy=0;" edge="1" parent="1" source="tBhQljCuQdXT5H8_TQD0-18" target="tBhQljCuQdXT5H8_TQD0-20">
          <mxGeometry width="50" height="50" relative="1" as="geometry">
            <mxPoint x="1021" y="410" as="sourcePoint" />
            <mxPoint x="1071" y="360" as="targetPoint" />
          </mxGeometry>
        </mxCell>
        <mxCell id="tBhQljCuQdXT5H8_TQD0-23" value="" style="shape=flexArrow;endArrow=classic;html=1;rounded=0;" edge="1" parent="1">
          <mxGeometry width="50" height="50" relative="1" as="geometry">
            <mxPoint x="1150" y="439" as="sourcePoint" />
            <mxPoint x="1150" y="509" as="targetPoint" />
          </mxGeometry>
        </mxCell>
        <mxCell id="tBhQljCuQdXT5H8_TQD0-24" value="&lt;font style=&quot;font-size: 16px;&quot; color=&quot;#ffffff&quot;&gt;| 16&amp;nbsp; | 26 |&lt;/font&gt;" style="rounded=0;whiteSpace=wrap;html=1;strokeColor=#3333FF;fillColor=#3333FF;" vertex="1" parent="1">
          <mxGeometry x="1104" y="535" width="80" height="40" as="geometry" />
        </mxCell>
        <mxCell id="tBhQljCuQdXT5H8_TQD0-25" value="&lt;font style=&quot;font-size: 16px;&quot; color=&quot;#ffffff&quot;&gt;| 12 | 14 |&lt;/font&gt;" style="rounded=0;whiteSpace=wrap;html=1;strokeColor=#3333FF;fillColor=#3333FF;" vertex="1" parent="1">
          <mxGeometry x="1010" y="620" width="80" height="40" as="geometry" />
        </mxCell>
        <mxCell id="tBhQljCuQdXT5H8_TQD0-26" value="&lt;font style=&quot;font-size: 16px;&quot; color=&quot;#ffffff&quot;&gt;| 24 |&lt;/font&gt;" style="rounded=0;whiteSpace=wrap;html=1;strokeColor=#3333FF;fillColor=#3333FF;" vertex="1" parent="1">
          <mxGeometry x="1104" y="620" width="80" height="40" as="geometry" />
        </mxCell>
        <mxCell id="tBhQljCuQdXT5H8_TQD0-27" value="" style="endArrow=classic;html=1;rounded=0;exitX=0.25;exitY=1;exitDx=0;exitDy=0;entryX=0.5;entryY=0;entryDx=0;entryDy=0;" edge="1" parent="1" source="tBhQljCuQdXT5H8_TQD0-24" target="tBhQljCuQdXT5H8_TQD0-25">
          <mxGeometry width="50" height="50" relative="1" as="geometry">
            <mxPoint x="1024" y="635" as="sourcePoint" />
            <mxPoint x="1074" y="585" as="targetPoint" />
          </mxGeometry>
        </mxCell>
        <mxCell id="tBhQljCuQdXT5H8_TQD0-28" value="" style="endArrow=classic;html=1;rounded=0;exitX=0.5;exitY=1;exitDx=0;exitDy=0;entryX=0.5;entryY=0;entryDx=0;entryDy=0;" edge="1" parent="1" source="tBhQljCuQdXT5H8_TQD0-24" target="tBhQljCuQdXT5H8_TQD0-26">
          <mxGeometry width="50" height="50" relative="1" as="geometry">
            <mxPoint x="1024" y="635" as="sourcePoint" />
            <mxPoint x="1074" y="585" as="targetPoint" />
          </mxGeometry>
        </mxCell>
        <mxCell id="tBhQljCuQdXT5H8_TQD0-29" value="" style="shape=flexArrow;endArrow=classic;html=1;rounded=0;" edge="1" parent="1">
          <mxGeometry width="50" height="50" relative="1" as="geometry">
            <mxPoint x="1010" y="554.88" as="sourcePoint" />
            <mxPoint x="940" y="554.38" as="targetPoint" />
          </mxGeometry>
        </mxCell>
        <mxCell id="tBhQljCuQdXT5H8_TQD0-30" value="&lt;font style=&quot;font-size: 16px;&quot; color=&quot;#ffffff&quot;&gt;| 32 |&lt;/font&gt;" style="rounded=0;whiteSpace=wrap;html=1;strokeColor=#3333FF;fillColor=#3333FF;" vertex="1" parent="1">
          <mxGeometry x="1200" y="620" width="80" height="40" as="geometry" />
        </mxCell>
        <mxCell id="tBhQljCuQdXT5H8_TQD0-32" value="" style="endArrow=classic;html=1;rounded=0;entryX=0.5;entryY=0;entryDx=0;entryDy=0;exitX=0.75;exitY=1;exitDx=0;exitDy=0;" edge="1" parent="1" source="tBhQljCuQdXT5H8_TQD0-24" target="tBhQljCuQdXT5H8_TQD0-30">
          <mxGeometry width="50" height="50" relative="1" as="geometry">
            <mxPoint x="1080" y="360" as="sourcePoint" />
            <mxPoint x="1130" y="310" as="targetPoint" />
          </mxGeometry>
        </mxCell>
        <mxCell id="tBhQljCuQdXT5H8_TQD0-33" value="&lt;font style=&quot;font-size: 16px;&quot; color=&quot;#ffffff&quot;&gt;| 16&amp;nbsp; | 26 |&lt;/font&gt;" style="rounded=0;whiteSpace=wrap;html=1;strokeColor=#3333FF;fillColor=#3333FF;" vertex="1" parent="1">
          <mxGeometry x="754" y="535" width="80" height="40" as="geometry" />
        </mxCell>
        <mxCell id="tBhQljCuQdXT5H8_TQD0-34" value="&lt;font style=&quot;font-size: 16px;&quot; color=&quot;#ffffff&quot;&gt;| 12 | 14 |&lt;/font&gt;" style="rounded=0;whiteSpace=wrap;html=1;strokeColor=#3333FF;fillColor=#3333FF;" vertex="1" parent="1">
          <mxGeometry x="660" y="620" width="80" height="40" as="geometry" />
        </mxCell>
        <mxCell id="tBhQljCuQdXT5H8_TQD0-35" value="&lt;font style=&quot;font-size: 16px;&quot; color=&quot;#ffffff&quot;&gt;| 24 |&lt;/font&gt;" style="rounded=0;whiteSpace=wrap;html=1;strokeColor=#3333FF;fillColor=#3333FF;" vertex="1" parent="1">
          <mxGeometry x="754" y="620" width="80" height="40" as="geometry" />
        </mxCell>
        <mxCell id="tBhQljCuQdXT5H8_TQD0-36" value="" style="endArrow=classic;html=1;rounded=0;exitX=0.25;exitY=1;exitDx=0;exitDy=0;entryX=0.5;entryY=0;entryDx=0;entryDy=0;" edge="1" parent="1" source="tBhQljCuQdXT5H8_TQD0-33" target="tBhQljCuQdXT5H8_TQD0-34">
          <mxGeometry width="50" height="50" relative="1" as="geometry">
            <mxPoint x="674" y="635" as="sourcePoint" />
            <mxPoint x="724" y="585" as="targetPoint" />
          </mxGeometry>
        </mxCell>
        <mxCell id="tBhQljCuQdXT5H8_TQD0-37" value="" style="endArrow=classic;html=1;rounded=0;exitX=0.5;exitY=1;exitDx=0;exitDy=0;entryX=0.5;entryY=0;entryDx=0;entryDy=0;" edge="1" parent="1" source="tBhQljCuQdXT5H8_TQD0-33" target="tBhQljCuQdXT5H8_TQD0-35">
          <mxGeometry width="50" height="50" relative="1" as="geometry">
            <mxPoint x="674" y="635" as="sourcePoint" />
            <mxPoint x="724" y="585" as="targetPoint" />
          </mxGeometry>
        </mxCell>
        <mxCell id="tBhQljCuQdXT5H8_TQD0-38" value="&lt;font style=&quot;font-size: 16px;&quot; color=&quot;#ffffff&quot;&gt;| 32 | 34 |&lt;/font&gt;" style="rounded=0;whiteSpace=wrap;html=1;strokeColor=#3333FF;fillColor=#3333FF;" vertex="1" parent="1">
          <mxGeometry x="850" y="620" width="80" height="40" as="geometry" />
        </mxCell>
        <mxCell id="tBhQljCuQdXT5H8_TQD0-39" value="" style="endArrow=classic;html=1;rounded=0;entryX=0.5;entryY=0;entryDx=0;entryDy=0;exitX=0.75;exitY=1;exitDx=0;exitDy=0;" edge="1" parent="1" source="tBhQljCuQdXT5H8_TQD0-33" target="tBhQljCuQdXT5H8_TQD0-38">
          <mxGeometry width="50" height="50" relative="1" as="geometry">
            <mxPoint x="730" y="360" as="sourcePoint" />
            <mxPoint x="780" y="310" as="targetPoint" />
          </mxGeometry>
        </mxCell>
        <mxCell id="tBhQljCuQdXT5H8_TQD0-40" value="" style="shape=flexArrow;endArrow=classic;html=1;rounded=0;" edge="1" parent="1">
          <mxGeometry width="50" height="50" relative="1" as="geometry">
            <mxPoint x="646" y="555" as="sourcePoint" />
            <mxPoint x="576" y="554.5" as="targetPoint" />
          </mxGeometry>
        </mxCell>
        <mxCell id="tBhQljCuQdXT5H8_TQD0-41" value="&lt;font style=&quot;font-size: 16px;&quot; color=&quot;#ffffff&quot;&gt;| 16&amp;nbsp; | 26 |&lt;/font&gt;" style="rounded=0;whiteSpace=wrap;html=1;strokeColor=#3333FF;fillColor=#3333FF;" vertex="1" parent="1">
          <mxGeometry x="359" y="470" width="80" height="40" as="geometry" />
        </mxCell>
        <mxCell id="tBhQljCuQdXT5H8_TQD0-42" value="&lt;font style=&quot;font-size: 16px;&quot; color=&quot;#ffffff&quot;&gt;| 12 |&lt;/font&gt;" style="rounded=0;whiteSpace=wrap;html=1;strokeColor=#3333FF;fillColor=#3333FF;" vertex="1" parent="1">
          <mxGeometry x="265" y="555" width="80" height="40" as="geometry" />
        </mxCell>
        <mxCell id="tBhQljCuQdXT5H8_TQD0-43" value="&lt;font style=&quot;font-size: 16px;&quot; color=&quot;#ffffff&quot;&gt;| 24 |&lt;/font&gt;" style="rounded=0;whiteSpace=wrap;html=1;strokeColor=#3333FF;fillColor=#3333FF;" vertex="1" parent="1">
          <mxGeometry x="359" y="555" width="80" height="40" as="geometry" />
        </mxCell>
        <mxCell id="tBhQljCuQdXT5H8_TQD0-44" value="" style="endArrow=classic;html=1;rounded=0;exitX=0.25;exitY=1;exitDx=0;exitDy=0;entryX=0.5;entryY=0;entryDx=0;entryDy=0;" edge="1" parent="1" source="tBhQljCuQdXT5H8_TQD0-41" target="tBhQljCuQdXT5H8_TQD0-42">
          <mxGeometry width="50" height="50" relative="1" as="geometry">
            <mxPoint x="279" y="570" as="sourcePoint" />
            <mxPoint x="329" y="520" as="targetPoint" />
          </mxGeometry>
        </mxCell>
        <mxCell id="tBhQljCuQdXT5H8_TQD0-45" value="" style="endArrow=classic;html=1;rounded=0;exitX=0.5;exitY=1;exitDx=0;exitDy=0;entryX=0.5;entryY=0;entryDx=0;entryDy=0;" edge="1" parent="1" source="tBhQljCuQdXT5H8_TQD0-41" target="tBhQljCuQdXT5H8_TQD0-43">
          <mxGeometry width="50" height="50" relative="1" as="geometry">
            <mxPoint x="279" y="570" as="sourcePoint" />
            <mxPoint x="329" y="520" as="targetPoint" />
          </mxGeometry>
        </mxCell>
        <mxCell id="tBhQljCuQdXT5H8_TQD0-46" value="&lt;font style=&quot;font-size: 16px;&quot; color=&quot;#ffffff&quot;&gt;| 32 | 34 |&lt;/font&gt;" style="rounded=0;whiteSpace=wrap;html=1;strokeColor=#3333FF;fillColor=#3333FF;" vertex="1" parent="1">
          <mxGeometry x="455" y="555" width="80" height="40" as="geometry" />
        </mxCell>
        <mxCell id="tBhQljCuQdXT5H8_TQD0-47" value="" style="endArrow=classic;html=1;rounded=0;entryX=0.5;entryY=0;entryDx=0;entryDy=0;exitX=0.75;exitY=1;exitDx=0;exitDy=0;" edge="1" parent="1" source="tBhQljCuQdXT5H8_TQD0-41" target="tBhQljCuQdXT5H8_TQD0-46">
          <mxGeometry width="50" height="50" relative="1" as="geometry">
            <mxPoint x="335" y="295" as="sourcePoint" />
            <mxPoint x="385" y="245" as="targetPoint" />
          </mxGeometry>
        </mxCell>
        <mxCell id="tBhQljCuQdXT5H8_TQD0-49" value="&lt;font style=&quot;font-size: 16px;&quot; color=&quot;#ffffff&quot;&gt;| 10 |&lt;/font&gt;" style="rounded=0;whiteSpace=wrap;html=1;strokeColor=#3333FF;fillColor=#3333FF;" vertex="1" parent="1">
          <mxGeometry x="215" y="640" width="80" height="40" as="geometry" />
        </mxCell>
        <mxCell id="tBhQljCuQdXT5H8_TQD0-50" value="&lt;font style=&quot;font-size: 16px;&quot; color=&quot;#ffffff&quot;&gt;| 14 |&lt;/font&gt;" style="rounded=0;whiteSpace=wrap;html=1;strokeColor=#3333FF;fillColor=#3333FF;" vertex="1" parent="1">
          <mxGeometry x="315" y="640" width="80" height="40" as="geometry" />
        </mxCell>
        <mxCell id="tBhQljCuQdXT5H8_TQD0-51" value="" style="endArrow=classic;html=1;rounded=0;exitX=0.25;exitY=1;exitDx=0;exitDy=0;entryX=0.5;entryY=0;entryDx=0;entryDy=0;" edge="1" parent="1" source="tBhQljCuQdXT5H8_TQD0-42" target="tBhQljCuQdXT5H8_TQD0-49">
          <mxGeometry width="50" height="50" relative="1" as="geometry">
            <mxPoint x="389" y="520" as="sourcePoint" />
            <mxPoint x="315" y="565" as="targetPoint" />
          </mxGeometry>
        </mxCell>
        <mxCell id="tBhQljCuQdXT5H8_TQD0-52" value="" style="endArrow=classic;html=1;rounded=0;exitX=0.75;exitY=1;exitDx=0;exitDy=0;entryX=0.5;entryY=0;entryDx=0;entryDy=0;" edge="1" parent="1" source="tBhQljCuQdXT5H8_TQD0-42" target="tBhQljCuQdXT5H8_TQD0-50">
          <mxGeometry width="50" height="50" relative="1" as="geometry">
            <mxPoint x="295" y="605" as="sourcePoint" />
            <mxPoint x="265" y="650" as="targetPoint" />
          </mxGeometry>
        </mxCell>
        <mxCell id="tBhQljCuQdXT5H8_TQD0-53" value="" style="endArrow=classic;html=1;rounded=0;" edge="1" parent="1">
          <mxGeometry width="50" height="50" relative="1" as="geometry">
            <mxPoint x="340" y="690" as="sourcePoint" />
            <mxPoint x="310" y="750" as="targetPoint" />
          </mxGeometry>
        </mxCell>
        <mxCell id="tBhQljCuQdXT5H8_TQD0-55" value="&lt;font style=&quot;font-size: 16px;&quot; color=&quot;#ffffff&quot;&gt;| 16 |&lt;/font&gt;" style="rounded=0;whiteSpace=wrap;html=1;strokeColor=#3333FF;fillColor=#3333FF;" vertex="1" parent="1">
          <mxGeometry x="230" y="770" width="80" height="40" as="geometry" />
        </mxCell>
        <mxCell id="tBhQljCuQdXT5H8_TQD0-56" value="&lt;font style=&quot;font-size: 16px;&quot; color=&quot;#ffffff&quot;&gt;| 12 |&lt;/font&gt;" style="rounded=0;whiteSpace=wrap;html=1;strokeColor=#3333FF;fillColor=#3333FF;" vertex="1" parent="1">
          <mxGeometry x="140" y="860" width="80" height="40" as="geometry" />
        </mxCell>
        <mxCell id="tBhQljCuQdXT5H8_TQD0-57" value="&lt;font style=&quot;font-size: 16px;&quot; color=&quot;#ffffff&quot;&gt;| 26 |&lt;/font&gt;" style="rounded=0;whiteSpace=wrap;html=1;strokeColor=#3333FF;fillColor=#3333FF;" vertex="1" parent="1">
          <mxGeometry x="330" y="860" width="80" height="40" as="geometry" />
        </mxCell>
        <mxCell id="tBhQljCuQdXT5H8_TQD0-58" value="" style="endArrow=classic;html=1;rounded=0;exitX=0.25;exitY=1;exitDx=0;exitDy=0;entryX=0.5;entryY=0;entryDx=0;entryDy=0;" edge="1" parent="1" source="tBhQljCuQdXT5H8_TQD0-55" target="tBhQljCuQdXT5H8_TQD0-56">
          <mxGeometry width="50" height="50" relative="1" as="geometry">
            <mxPoint x="184" y="870" as="sourcePoint" />
            <mxPoint x="234" y="820" as="targetPoint" />
          </mxGeometry>
        </mxCell>
        <mxCell id="tBhQljCuQdXT5H8_TQD0-59" value="" style="endArrow=classic;html=1;rounded=0;exitX=0.5;exitY=1;exitDx=0;exitDy=0;entryX=0.5;entryY=0;entryDx=0;entryDy=0;" edge="1" parent="1" source="tBhQljCuQdXT5H8_TQD0-55" target="tBhQljCuQdXT5H8_TQD0-57">
          <mxGeometry width="50" height="50" relative="1" as="geometry">
            <mxPoint x="184" y="870" as="sourcePoint" />
            <mxPoint x="234" y="820" as="targetPoint" />
          </mxGeometry>
        </mxCell>
        <mxCell id="tBhQljCuQdXT5H8_TQD0-60" value="&lt;font style=&quot;font-size: 16px;&quot; color=&quot;#ffffff&quot;&gt;| 32 | 34 |&lt;/font&gt;" style="rounded=0;whiteSpace=wrap;html=1;strokeColor=#3333FF;fillColor=#3333FF;" vertex="1" parent="1">
          <mxGeometry x="380" y="950" width="80" height="40" as="geometry" />
        </mxCell>
        <mxCell id="tBhQljCuQdXT5H8_TQD0-61" value="" style="endArrow=classic;html=1;rounded=0;entryX=0.5;entryY=0;entryDx=0;entryDy=0;exitX=0.75;exitY=1;exitDx=0;exitDy=0;" edge="1" parent="1" source="tBhQljCuQdXT5H8_TQD0-57" target="tBhQljCuQdXT5H8_TQD0-60">
          <mxGeometry width="50" height="50" relative="1" as="geometry">
            <mxPoint x="240" y="595" as="sourcePoint" />
            <mxPoint x="290" y="545" as="targetPoint" />
          </mxGeometry>
        </mxCell>
        <mxCell id="tBhQljCuQdXT5H8_TQD0-62" value="&lt;font style=&quot;font-size: 16px;&quot; color=&quot;#ffffff&quot;&gt;| 14 |&lt;/font&gt;" style="rounded=0;whiteSpace=wrap;html=1;strokeColor=#3333FF;fillColor=#3333FF;" vertex="1" parent="1">
          <mxGeometry x="184" y="950" width="80" height="40" as="geometry" />
        </mxCell>
        <mxCell id="tBhQljCuQdXT5H8_TQD0-63" value="" style="endArrow=classic;html=1;rounded=0;exitX=0.25;exitY=1;exitDx=0;exitDy=0;entryX=0.5;entryY=0;entryDx=0;entryDy=0;" edge="1" parent="1" source="tBhQljCuQdXT5H8_TQD0-56" target="tBhQljCuQdXT5H8_TQD0-65">
          <mxGeometry width="50" height="50" relative="1" as="geometry">
            <mxPoint x="294" y="820" as="sourcePoint" />
            <mxPoint x="160" y="940" as="targetPoint" />
          </mxGeometry>
        </mxCell>
        <mxCell id="tBhQljCuQdXT5H8_TQD0-64" value="" style="endArrow=classic;html=1;rounded=0;exitX=0.75;exitY=1;exitDx=0;exitDy=0;entryX=0.5;entryY=0;entryDx=0;entryDy=0;" edge="1" parent="1" source="tBhQljCuQdXT5H8_TQD0-56" target="tBhQljCuQdXT5H8_TQD0-62">
          <mxGeometry width="50" height="50" relative="1" as="geometry">
            <mxPoint x="200" y="905" as="sourcePoint" />
            <mxPoint x="170" y="950" as="targetPoint" />
          </mxGeometry>
        </mxCell>
        <mxCell id="tBhQljCuQdXT5H8_TQD0-65" value="&lt;font style=&quot;font-size: 16px;&quot; color=&quot;#ffffff&quot;&gt;| 10 |&lt;/font&gt;" style="rounded=0;whiteSpace=wrap;html=1;strokeColor=#3333FF;fillColor=#3333FF;" vertex="1" parent="1">
          <mxGeometry x="80" y="950" width="80" height="40" as="geometry" />
        </mxCell>
        <mxCell id="tBhQljCuQdXT5H8_TQD0-67" value="&lt;font style=&quot;font-size: 16px;&quot; color=&quot;#ffffff&quot;&gt;| 24 |&lt;/font&gt;" style="rounded=0;whiteSpace=wrap;html=1;strokeColor=#3333FF;fillColor=#3333FF;" vertex="1" parent="1">
          <mxGeometry x="280" y="950" width="80" height="40" as="geometry" />
        </mxCell>
        <mxCell id="tBhQljCuQdXT5H8_TQD0-68" value="" style="endArrow=classic;html=1;rounded=0;exitX=0.25;exitY=1;exitDx=0;exitDy=0;entryX=0.5;entryY=0;entryDx=0;entryDy=0;" edge="1" parent="1" source="tBhQljCuQdXT5H8_TQD0-57" target="tBhQljCuQdXT5H8_TQD0-67">
          <mxGeometry width="50" height="50" relative="1" as="geometry">
            <mxPoint x="20" y="890" as="sourcePoint" />
            <mxPoint x="110" y="890" as="targetPoint" />
          </mxGeometry>
        </mxCell>
        <mxCell id="tBhQljCuQdXT5H8_TQD0-83" value="" style="shape=flexArrow;endArrow=classic;html=1;rounded=0;" edge="1" parent="1">
          <mxGeometry width="50" height="50" relative="1" as="geometry">
            <mxPoint x="970" y="329.38" as="sourcePoint" />
            <mxPoint x="1035" y="329.38" as="targetPoint" />
          </mxGeometry>
        </mxCell>
        <mxCell id="tBhQljCuQdXT5H8_TQD0-84" value="&lt;font color=&quot;#ff3333&quot;&gt;不满足所有叶子&lt;br style=&quot;border-color: var(--border-color); font-size: 14px; text-align: center; background-color: rgb(255, 255, 255);&quot;&gt;&lt;span style=&quot;font-size: 14px; text-align: center; background-color: rgb(255, 255, 255);&quot;&gt;在同一级的原则&lt;/span&gt;&lt;/font&gt;" style="text;strokeColor=none;fillColor=none;align=left;verticalAlign=middle;spacingLeft=4;spacingRight=4;overflow=hidden;points=[[0,0.5],[1,0.5]];portConstraint=eastwest;rotatable=0;whiteSpace=wrap;html=1;" vertex="1" parent="1">
          <mxGeometry x="410" y="650" width="130" height="40" as="geometry" />
        </mxCell>
        <mxCell id="tBhQljCuQdXT5H8_TQD0-85" value="&lt;font style=&quot;font-size: 16px;&quot; color=&quot;#ffffff&quot;&gt;| 16 |&lt;/font&gt;" style="rounded=0;whiteSpace=wrap;html=1;strokeColor=#3333FF;fillColor=#3333FF;" vertex="1" parent="1">
          <mxGeometry x="666" y="770" width="80" height="40" as="geometry" />
        </mxCell>
        <mxCell id="tBhQljCuQdXT5H8_TQD0-86" value="&lt;font style=&quot;font-size: 16px;&quot; color=&quot;#ffffff&quot;&gt;| 12 |&lt;/font&gt;" style="rounded=0;whiteSpace=wrap;html=1;strokeColor=#3333FF;fillColor=#3333FF;" vertex="1" parent="1">
          <mxGeometry x="576" y="860" width="80" height="40" as="geometry" />
        </mxCell>
        <mxCell id="tBhQljCuQdXT5H8_TQD0-87" value="&lt;font style=&quot;font-size: 16px;&quot; color=&quot;#ffffff&quot;&gt;| 26 |&lt;/font&gt;" style="rounded=0;whiteSpace=wrap;html=1;strokeColor=#3333FF;fillColor=#3333FF;" vertex="1" parent="1">
          <mxGeometry x="766" y="860" width="80" height="40" as="geometry" />
        </mxCell>
        <mxCell id="tBhQljCuQdXT5H8_TQD0-88" value="" style="endArrow=classic;html=1;rounded=0;exitX=0.25;exitY=1;exitDx=0;exitDy=0;entryX=0.5;entryY=0;entryDx=0;entryDy=0;" edge="1" parent="1" source="tBhQljCuQdXT5H8_TQD0-85" target="tBhQljCuQdXT5H8_TQD0-86">
          <mxGeometry width="50" height="50" relative="1" as="geometry">
            <mxPoint x="620" y="870" as="sourcePoint" />
            <mxPoint x="670" y="820" as="targetPoint" />
          </mxGeometry>
        </mxCell>
        <mxCell id="tBhQljCuQdXT5H8_TQD0-89" value="" style="endArrow=classic;html=1;rounded=0;exitX=0.5;exitY=1;exitDx=0;exitDy=0;entryX=0.5;entryY=0;entryDx=0;entryDy=0;" edge="1" parent="1" source="tBhQljCuQdXT5H8_TQD0-85" target="tBhQljCuQdXT5H8_TQD0-87">
          <mxGeometry width="50" height="50" relative="1" as="geometry">
            <mxPoint x="620" y="870" as="sourcePoint" />
            <mxPoint x="670" y="820" as="targetPoint" />
          </mxGeometry>
        </mxCell>
        <mxCell id="tBhQljCuQdXT5H8_TQD0-90" value="&lt;font style=&quot;font-size: 16px;&quot; color=&quot;#ffffff&quot;&gt;| 32 | 34 |&lt;/font&gt;" style="rounded=0;whiteSpace=wrap;html=1;strokeColor=#3333FF;fillColor=#3333FF;" vertex="1" parent="1">
          <mxGeometry x="816" y="950" width="80" height="40" as="geometry" />
        </mxCell>
        <mxCell id="tBhQljCuQdXT5H8_TQD0-91" value="" style="endArrow=classic;html=1;rounded=0;entryX=0.5;entryY=0;entryDx=0;entryDy=0;exitX=0.75;exitY=1;exitDx=0;exitDy=0;" edge="1" parent="1" source="tBhQljCuQdXT5H8_TQD0-87" target="tBhQljCuQdXT5H8_TQD0-90">
          <mxGeometry width="50" height="50" relative="1" as="geometry">
            <mxPoint x="676" y="595" as="sourcePoint" />
            <mxPoint x="726" y="545" as="targetPoint" />
          </mxGeometry>
        </mxCell>
        <mxCell id="tBhQljCuQdXT5H8_TQD0-92" value="&lt;font style=&quot;font-size: 16px;&quot; color=&quot;#ffffff&quot;&gt;| 14 |&lt;/font&gt;" style="rounded=0;whiteSpace=wrap;html=1;strokeColor=#3333FF;fillColor=#3333FF;" vertex="1" parent="1">
          <mxGeometry x="620" y="950" width="80" height="40" as="geometry" />
        </mxCell>
        <mxCell id="tBhQljCuQdXT5H8_TQD0-93" value="" style="endArrow=classic;html=1;rounded=0;exitX=0.25;exitY=1;exitDx=0;exitDy=0;entryX=0.5;entryY=0;entryDx=0;entryDy=0;" edge="1" parent="1" source="tBhQljCuQdXT5H8_TQD0-86">
          <mxGeometry width="50" height="50" relative="1" as="geometry">
            <mxPoint x="730" y="820" as="sourcePoint" />
            <mxPoint x="556" y="950.0000000000002" as="targetPoint" />
          </mxGeometry>
        </mxCell>
        <mxCell id="tBhQljCuQdXT5H8_TQD0-94" value="" style="endArrow=classic;html=1;rounded=0;exitX=0.75;exitY=1;exitDx=0;exitDy=0;entryX=0.5;entryY=0;entryDx=0;entryDy=0;" edge="1" parent="1" source="tBhQljCuQdXT5H8_TQD0-86" target="tBhQljCuQdXT5H8_TQD0-92">
          <mxGeometry width="50" height="50" relative="1" as="geometry">
            <mxPoint x="636" y="905" as="sourcePoint" />
            <mxPoint x="606" y="950" as="targetPoint" />
          </mxGeometry>
        </mxCell>
        <mxCell id="tBhQljCuQdXT5H8_TQD0-95" value="&lt;font style=&quot;font-size: 16px;&quot; color=&quot;#ffffff&quot;&gt;| 8 | 10 |&lt;/font&gt;" style="rounded=0;whiteSpace=wrap;html=1;strokeColor=#3333FF;fillColor=#3333FF;" vertex="1" parent="1">
          <mxGeometry x="590" y="950" width="80" height="40" as="geometry" />
        </mxCell>
        <mxCell id="tBhQljCuQdXT5H8_TQD0-96" value="&lt;font style=&quot;font-size: 16px;&quot; color=&quot;#ffffff&quot;&gt;| 24 |&lt;/font&gt;" style="rounded=0;whiteSpace=wrap;html=1;strokeColor=#3333FF;fillColor=#3333FF;" vertex="1" parent="1">
          <mxGeometry x="716" y="950" width="80" height="40" as="geometry" />
        </mxCell>
        <mxCell id="tBhQljCuQdXT5H8_TQD0-97" value="" style="endArrow=classic;html=1;rounded=0;exitX=0.25;exitY=1;exitDx=0;exitDy=0;entryX=0.5;entryY=0;entryDx=0;entryDy=0;" edge="1" parent="1" source="tBhQljCuQdXT5H8_TQD0-87" target="tBhQljCuQdXT5H8_TQD0-96">
          <mxGeometry width="50" height="50" relative="1" as="geometry">
            <mxPoint x="456" y="890" as="sourcePoint" />
            <mxPoint x="546" y="890" as="targetPoint" />
          </mxGeometry>
        </mxCell>
        <mxCell id="tBhQljCuQdXT5H8_TQD0-98" value="" style="shape=flexArrow;endArrow=classic;html=1;rounded=0;" edge="1" parent="1">
          <mxGeometry width="50" height="50" relative="1" as="geometry">
            <mxPoint x="455" y="830" as="sourcePoint" />
            <mxPoint x="520" y="830" as="targetPoint" />
          </mxGeometry>
        </mxCell>
        <mxCell id="tBhQljCuQdXT5H8_TQD0-101" value="&lt;font style=&quot;font-size: 16px;&quot; color=&quot;#ffffff&quot;&gt;| 16 |&lt;/font&gt;" style="rounded=0;whiteSpace=wrap;html=1;strokeColor=#3333FF;fillColor=#3333FF;" vertex="1" parent="1">
          <mxGeometry x="1110" y="770" width="80" height="40" as="geometry" />
        </mxCell>
        <mxCell id="tBhQljCuQdXT5H8_TQD0-102" value="&lt;font style=&quot;font-size: 16px;&quot; color=&quot;#ffffff&quot;&gt;| 12 |&lt;/font&gt;" style="rounded=0;whiteSpace=wrap;html=1;strokeColor=#3333FF;fillColor=#3333FF;" vertex="1" parent="1">
          <mxGeometry x="1020" y="860" width="80" height="40" as="geometry" />
        </mxCell>
        <mxCell id="tBhQljCuQdXT5H8_TQD0-103" value="&lt;font style=&quot;font-size: 16px;&quot; color=&quot;#ffffff&quot;&gt;| 26 | 32 |&lt;/font&gt;" style="rounded=0;whiteSpace=wrap;html=1;strokeColor=#3333FF;fillColor=#3333FF;" vertex="1" parent="1">
          <mxGeometry x="1220" y="850" width="80" height="40" as="geometry" />
        </mxCell>
        <mxCell id="tBhQljCuQdXT5H8_TQD0-104" value="" style="endArrow=classic;html=1;rounded=0;exitX=0.25;exitY=1;exitDx=0;exitDy=0;entryX=0.5;entryY=0;entryDx=0;entryDy=0;" edge="1" parent="1" source="tBhQljCuQdXT5H8_TQD0-101" target="tBhQljCuQdXT5H8_TQD0-102">
          <mxGeometry width="50" height="50" relative="1" as="geometry">
            <mxPoint x="1064" y="870" as="sourcePoint" />
            <mxPoint x="1114" y="820" as="targetPoint" />
          </mxGeometry>
        </mxCell>
        <mxCell id="tBhQljCuQdXT5H8_TQD0-105" value="" style="endArrow=classic;html=1;rounded=0;exitX=0.5;exitY=1;exitDx=0;exitDy=0;entryX=0.5;entryY=0;entryDx=0;entryDy=0;" edge="1" parent="1" source="tBhQljCuQdXT5H8_TQD0-101" target="tBhQljCuQdXT5H8_TQD0-103">
          <mxGeometry width="50" height="50" relative="1" as="geometry">
            <mxPoint x="1064" y="870" as="sourcePoint" />
            <mxPoint x="1114" y="820" as="targetPoint" />
          </mxGeometry>
        </mxCell>
        <mxCell id="tBhQljCuQdXT5H8_TQD0-106" value="&lt;font style=&quot;font-size: 16px;&quot; color=&quot;#ffffff&quot;&gt;| 28 |&lt;/font&gt;" style="rounded=0;whiteSpace=wrap;html=1;strokeColor=#3333FF;fillColor=#3333FF;" vertex="1" parent="1">
          <mxGeometry x="1250" y="950" width="80" height="40" as="geometry" />
        </mxCell>
        <mxCell id="tBhQljCuQdXT5H8_TQD0-107" value="" style="endArrow=classic;html=1;rounded=0;entryX=0.5;entryY=0;entryDx=0;entryDy=0;exitX=0.5;exitY=1;exitDx=0;exitDy=0;" edge="1" parent="1" source="tBhQljCuQdXT5H8_TQD0-103" target="tBhQljCuQdXT5H8_TQD0-106">
          <mxGeometry width="50" height="50" relative="1" as="geometry">
            <mxPoint x="1120" y="595" as="sourcePoint" />
            <mxPoint x="1170" y="545" as="targetPoint" />
          </mxGeometry>
        </mxCell>
        <mxCell id="tBhQljCuQdXT5H8_TQD0-108" value="&lt;font style=&quot;font-size: 16px;&quot; color=&quot;#ffffff&quot;&gt;| 14 |&lt;/font&gt;" style="rounded=0;whiteSpace=wrap;html=1;strokeColor=#3333FF;fillColor=#3333FF;" vertex="1" parent="1">
          <mxGeometry x="1064" y="950" width="80" height="40" as="geometry" />
        </mxCell>
        <mxCell id="tBhQljCuQdXT5H8_TQD0-109" value="" style="endArrow=classic;html=1;rounded=0;exitX=0.25;exitY=1;exitDx=0;exitDy=0;entryX=0.5;entryY=0;entryDx=0;entryDy=0;" edge="1" parent="1" source="tBhQljCuQdXT5H8_TQD0-102" target="tBhQljCuQdXT5H8_TQD0-111">
          <mxGeometry width="50" height="50" relative="1" as="geometry">
            <mxPoint x="1174" y="820" as="sourcePoint" />
            <mxPoint x="1040" y="940" as="targetPoint" />
          </mxGeometry>
        </mxCell>
        <mxCell id="tBhQljCuQdXT5H8_TQD0-110" value="" style="endArrow=classic;html=1;rounded=0;exitX=0.75;exitY=1;exitDx=0;exitDy=0;entryX=0.5;entryY=0;entryDx=0;entryDy=0;" edge="1" parent="1" source="tBhQljCuQdXT5H8_TQD0-102" target="tBhQljCuQdXT5H8_TQD0-108">
          <mxGeometry width="50" height="50" relative="1" as="geometry">
            <mxPoint x="1080" y="905" as="sourcePoint" />
            <mxPoint x="1050" y="950" as="targetPoint" />
          </mxGeometry>
        </mxCell>
        <mxCell id="tBhQljCuQdXT5H8_TQD0-111" value="&lt;font style=&quot;font-size: 16px;&quot; color=&quot;#ffffff&quot;&gt;| 8 | 10 |&lt;/font&gt;" style="rounded=0;whiteSpace=wrap;html=1;strokeColor=#3333FF;fillColor=#3333FF;" vertex="1" parent="1">
          <mxGeometry x="960" y="950" width="80" height="40" as="geometry" />
        </mxCell>
        <mxCell id="tBhQljCuQdXT5H8_TQD0-112" value="&lt;font style=&quot;font-size: 16px;&quot; color=&quot;#ffffff&quot;&gt;| 24 |&lt;/font&gt;" style="rounded=0;whiteSpace=wrap;html=1;strokeColor=#3333FF;fillColor=#3333FF;" vertex="1" parent="1">
          <mxGeometry x="1160" y="950" width="80" height="40" as="geometry" />
        </mxCell>
        <mxCell id="tBhQljCuQdXT5H8_TQD0-113" value="" style="endArrow=classic;html=1;rounded=0;exitX=0.25;exitY=1;exitDx=0;exitDy=0;entryX=0.5;entryY=0;entryDx=0;entryDy=0;" edge="1" parent="1" source="tBhQljCuQdXT5H8_TQD0-103" target="tBhQljCuQdXT5H8_TQD0-112">
          <mxGeometry width="50" height="50" relative="1" as="geometry">
            <mxPoint x="900" y="890" as="sourcePoint" />
            <mxPoint x="990" y="890" as="targetPoint" />
          </mxGeometry>
        </mxCell>
        <mxCell id="tBhQljCuQdXT5H8_TQD0-114" value="&lt;font style=&quot;font-size: 16px;&quot; color=&quot;#ffffff&quot;&gt;| 34 |&lt;/font&gt;" style="rounded=0;whiteSpace=wrap;html=1;strokeColor=#3333FF;fillColor=#3333FF;" vertex="1" parent="1">
          <mxGeometry x="1340" y="950" width="80" height="40" as="geometry" />
        </mxCell>
        <mxCell id="tBhQljCuQdXT5H8_TQD0-115" value="" style="endArrow=classic;html=1;rounded=0;entryX=0.5;entryY=0;entryDx=0;entryDy=0;exitX=0.75;exitY=1;exitDx=0;exitDy=0;" edge="1" parent="1" source="tBhQljCuQdXT5H8_TQD0-103" target="tBhQljCuQdXT5H8_TQD0-114">
          <mxGeometry width="50" height="50" relative="1" as="geometry">
            <mxPoint x="990" y="820" as="sourcePoint" />
            <mxPoint x="1040" y="770" as="targetPoint" />
          </mxGeometry>
        </mxCell>
        <mxCell id="tBhQljCuQdXT5H8_TQD0-116" value="" style="shape=flexArrow;endArrow=classic;html=1;rounded=0;" edge="1" parent="1">
          <mxGeometry width="50" height="50" relative="1" as="geometry">
            <mxPoint x="896" y="800" as="sourcePoint" />
            <mxPoint x="961" y="800" as="targetPoint" />
          </mxGeometry>
        </mxCell>
        <mxCell id="tBhQljCuQdXT5H8_TQD0-117" value="&lt;font style=&quot;font-size: 16px;&quot; color=&quot;#ffffff&quot;&gt;| 16 |&lt;/font&gt;" style="rounded=0;whiteSpace=wrap;html=1;strokeColor=#3333FF;fillColor=#3333FF;" vertex="1" parent="1">
          <mxGeometry x="1096" y="1130" width="80" height="40" as="geometry" />
        </mxCell>
        <mxCell id="tBhQljCuQdXT5H8_TQD0-118" value="&lt;font style=&quot;font-size: 16px;&quot; color=&quot;#ffffff&quot;&gt;| 12 |&lt;/font&gt;" style="rounded=0;whiteSpace=wrap;html=1;strokeColor=#3333FF;fillColor=#3333FF;" vertex="1" parent="1">
          <mxGeometry x="1006" y="1220" width="80" height="40" as="geometry" />
        </mxCell>
        <mxCell id="tBhQljCuQdXT5H8_TQD0-119" value="&lt;font style=&quot;font-size: 16px;&quot; color=&quot;#ffffff&quot;&gt;| 26 | 32 |&lt;/font&gt;" style="rounded=0;whiteSpace=wrap;html=1;strokeColor=#3333FF;fillColor=#3333FF;" vertex="1" parent="1">
          <mxGeometry x="1206" y="1210" width="80" height="40" as="geometry" />
        </mxCell>
        <mxCell id="tBhQljCuQdXT5H8_TQD0-120" value="" style="endArrow=classic;html=1;rounded=0;exitX=0.25;exitY=1;exitDx=0;exitDy=0;entryX=0.5;entryY=0;entryDx=0;entryDy=0;" edge="1" parent="1" source="tBhQljCuQdXT5H8_TQD0-117" target="tBhQljCuQdXT5H8_TQD0-118">
          <mxGeometry width="50" height="50" relative="1" as="geometry">
            <mxPoint x="1050" y="1230" as="sourcePoint" />
            <mxPoint x="1100" y="1180" as="targetPoint" />
          </mxGeometry>
        </mxCell>
        <mxCell id="tBhQljCuQdXT5H8_TQD0-121" value="" style="endArrow=classic;html=1;rounded=0;exitX=0.5;exitY=1;exitDx=0;exitDy=0;entryX=0.5;entryY=0;entryDx=0;entryDy=0;" edge="1" parent="1" source="tBhQljCuQdXT5H8_TQD0-117" target="tBhQljCuQdXT5H8_TQD0-119">
          <mxGeometry width="50" height="50" relative="1" as="geometry">
            <mxPoint x="1050" y="1230" as="sourcePoint" />
            <mxPoint x="1100" y="1180" as="targetPoint" />
          </mxGeometry>
        </mxCell>
        <mxCell id="tBhQljCuQdXT5H8_TQD0-122" value="&lt;font style=&quot;font-size: 16px;&quot; color=&quot;#ffffff&quot;&gt;| 28 |&lt;/font&gt;" style="rounded=0;whiteSpace=wrap;html=1;strokeColor=#3333FF;fillColor=#3333FF;" vertex="1" parent="1">
          <mxGeometry x="1236" y="1310" width="80" height="40" as="geometry" />
        </mxCell>
        <mxCell id="tBhQljCuQdXT5H8_TQD0-123" value="" style="endArrow=classic;html=1;rounded=0;entryX=0.5;entryY=0;entryDx=0;entryDy=0;exitX=0.5;exitY=1;exitDx=0;exitDy=0;" edge="1" parent="1" source="tBhQljCuQdXT5H8_TQD0-119" target="tBhQljCuQdXT5H8_TQD0-122">
          <mxGeometry width="50" height="50" relative="1" as="geometry">
            <mxPoint x="1106" y="955" as="sourcePoint" />
            <mxPoint x="1156" y="905" as="targetPoint" />
          </mxGeometry>
        </mxCell>
        <mxCell id="tBhQljCuQdXT5H8_TQD0-124" value="&lt;font style=&quot;font-size: 16px;&quot; color=&quot;#ffffff&quot;&gt;| 14 |&lt;/font&gt;" style="rounded=0;whiteSpace=wrap;html=1;strokeColor=#3333FF;fillColor=#3333FF;" vertex="1" parent="1">
          <mxGeometry x="1050" y="1310" width="80" height="40" as="geometry" />
        </mxCell>
        <mxCell id="tBhQljCuQdXT5H8_TQD0-125" value="" style="endArrow=classic;html=1;rounded=0;exitX=0.25;exitY=1;exitDx=0;exitDy=0;entryX=0.5;entryY=0;entryDx=0;entryDy=0;" edge="1" parent="1" source="tBhQljCuQdXT5H8_TQD0-118" target="tBhQljCuQdXT5H8_TQD0-127">
          <mxGeometry width="50" height="50" relative="1" as="geometry">
            <mxPoint x="1160" y="1180" as="sourcePoint" />
            <mxPoint x="1026" y="1300" as="targetPoint" />
          </mxGeometry>
        </mxCell>
        <mxCell id="tBhQljCuQdXT5H8_TQD0-126" value="" style="endArrow=classic;html=1;rounded=0;exitX=0.75;exitY=1;exitDx=0;exitDy=0;entryX=0.5;entryY=0;entryDx=0;entryDy=0;" edge="1" parent="1" source="tBhQljCuQdXT5H8_TQD0-118" target="tBhQljCuQdXT5H8_TQD0-124">
          <mxGeometry width="50" height="50" relative="1" as="geometry">
            <mxPoint x="1066" y="1265" as="sourcePoint" />
            <mxPoint x="1036" y="1310" as="targetPoint" />
          </mxGeometry>
        </mxCell>
        <mxCell id="tBhQljCuQdXT5H8_TQD0-127" value="&lt;font style=&quot;font-size: 16px;&quot; color=&quot;#ffffff&quot;&gt;| 8 | 10 |&lt;/font&gt;" style="rounded=0;whiteSpace=wrap;html=1;strokeColor=#3333FF;fillColor=#3333FF;" vertex="1" parent="1">
          <mxGeometry x="946" y="1310" width="80" height="40" as="geometry" />
        </mxCell>
        <mxCell id="tBhQljCuQdXT5H8_TQD0-128" value="&lt;font style=&quot;font-size: 16px;&quot; color=&quot;#ffffff&quot;&gt;| 24 |&lt;/font&gt;" style="rounded=0;whiteSpace=wrap;html=1;strokeColor=#3333FF;fillColor=#3333FF;" vertex="1" parent="1">
          <mxGeometry x="1146" y="1310" width="80" height="40" as="geometry" />
        </mxCell>
        <mxCell id="tBhQljCuQdXT5H8_TQD0-129" value="" style="endArrow=classic;html=1;rounded=0;exitX=0.25;exitY=1;exitDx=0;exitDy=0;entryX=0.5;entryY=0;entryDx=0;entryDy=0;" edge="1" parent="1" source="tBhQljCuQdXT5H8_TQD0-119" target="tBhQljCuQdXT5H8_TQD0-128">
          <mxGeometry width="50" height="50" relative="1" as="geometry">
            <mxPoint x="886" y="1250" as="sourcePoint" />
            <mxPoint x="976" y="1250" as="targetPoint" />
          </mxGeometry>
        </mxCell>
        <mxCell id="tBhQljCuQdXT5H8_TQD0-130" value="&lt;font style=&quot;font-size: 16px;&quot; color=&quot;#ffffff&quot;&gt;| 34 | 38 |&lt;/font&gt;" style="rounded=0;whiteSpace=wrap;html=1;strokeColor=#3333FF;fillColor=#3333FF;" vertex="1" parent="1">
          <mxGeometry x="1326" y="1310" width="80" height="40" as="geometry" />
        </mxCell>
        <mxCell id="tBhQljCuQdXT5H8_TQD0-131" value="" style="endArrow=classic;html=1;rounded=0;entryX=0.5;entryY=0;entryDx=0;entryDy=0;exitX=0.75;exitY=1;exitDx=0;exitDy=0;" edge="1" parent="1" source="tBhQljCuQdXT5H8_TQD0-119" target="tBhQljCuQdXT5H8_TQD0-130">
          <mxGeometry width="50" height="50" relative="1" as="geometry">
            <mxPoint x="976" y="1180" as="sourcePoint" />
            <mxPoint x="1026" y="1130" as="targetPoint" />
          </mxGeometry>
        </mxCell>
        <mxCell id="tBhQljCuQdXT5H8_TQD0-132" value="&lt;font style=&quot;font-size: 16px;&quot; color=&quot;#ffffff&quot;&gt;| 16 |&lt;/font&gt;" style="rounded=0;whiteSpace=wrap;html=1;strokeColor=#3333FF;fillColor=#3333FF;" vertex="1" parent="1">
          <mxGeometry x="350" y="1130" width="80" height="40" as="geometry" />
        </mxCell>
        <mxCell id="tBhQljCuQdXT5H8_TQD0-133" value="&lt;font style=&quot;font-size: 16px;&quot; color=&quot;#ffffff&quot;&gt;| 12 |&lt;/font&gt;" style="rounded=0;whiteSpace=wrap;html=1;strokeColor=#3333FF;fillColor=#3333FF;" vertex="1" parent="1">
          <mxGeometry x="260" y="1220" width="80" height="40" as="geometry" />
        </mxCell>
        <mxCell id="tBhQljCuQdXT5H8_TQD0-134" value="&lt;font style=&quot;font-size: 16px;&quot; color=&quot;#ffffff&quot;&gt;| 26 | 32 |&lt;/font&gt;" style="rounded=0;whiteSpace=wrap;html=1;strokeColor=#3333FF;fillColor=#3333FF;" vertex="1" parent="1">
          <mxGeometry x="460" y="1210" width="80" height="40" as="geometry" />
        </mxCell>
        <mxCell id="tBhQljCuQdXT5H8_TQD0-135" value="" style="endArrow=classic;html=1;rounded=0;exitX=0.25;exitY=1;exitDx=0;exitDy=0;entryX=0.5;entryY=0;entryDx=0;entryDy=0;" edge="1" parent="1" source="tBhQljCuQdXT5H8_TQD0-132" target="tBhQljCuQdXT5H8_TQD0-133">
          <mxGeometry width="50" height="50" relative="1" as="geometry">
            <mxPoint x="304" y="1230" as="sourcePoint" />
            <mxPoint x="354" y="1180" as="targetPoint" />
          </mxGeometry>
        </mxCell>
        <mxCell id="tBhQljCuQdXT5H8_TQD0-136" value="" style="endArrow=classic;html=1;rounded=0;exitX=0.5;exitY=1;exitDx=0;exitDy=0;entryX=0.5;entryY=0;entryDx=0;entryDy=0;" edge="1" parent="1" source="tBhQljCuQdXT5H8_TQD0-132" target="tBhQljCuQdXT5H8_TQD0-134">
          <mxGeometry width="50" height="50" relative="1" as="geometry">
            <mxPoint x="304" y="1230" as="sourcePoint" />
            <mxPoint x="354" y="1180" as="targetPoint" />
          </mxGeometry>
        </mxCell>
        <mxCell id="tBhQljCuQdXT5H8_TQD0-137" value="&lt;font style=&quot;font-size: 16px;&quot; color=&quot;#ffffff&quot;&gt;| 28 |&lt;/font&gt;" style="rounded=0;whiteSpace=wrap;html=1;strokeColor=#3333FF;fillColor=#3333FF;" vertex="1" parent="1">
          <mxGeometry x="490" y="1310" width="80" height="40" as="geometry" />
        </mxCell>
        <mxCell id="tBhQljCuQdXT5H8_TQD0-138" value="" style="endArrow=classic;html=1;rounded=0;entryX=0.5;entryY=0;entryDx=0;entryDy=0;exitX=0.5;exitY=1;exitDx=0;exitDy=0;" edge="1" parent="1" source="tBhQljCuQdXT5H8_TQD0-134" target="tBhQljCuQdXT5H8_TQD0-137">
          <mxGeometry width="50" height="50" relative="1" as="geometry">
            <mxPoint x="360" y="955" as="sourcePoint" />
            <mxPoint x="410" y="905" as="targetPoint" />
          </mxGeometry>
        </mxCell>
        <mxCell id="tBhQljCuQdXT5H8_TQD0-139" value="&lt;font style=&quot;font-size: 16px;&quot; color=&quot;#ffffff&quot;&gt;| 14&amp;nbsp; |&lt;/font&gt;" style="rounded=0;whiteSpace=wrap;html=1;strokeColor=#3333FF;fillColor=#3333FF;" vertex="1" parent="1">
          <mxGeometry x="304" y="1310" width="80" height="40" as="geometry" />
        </mxCell>
        <mxCell id="tBhQljCuQdXT5H8_TQD0-140" value="" style="endArrow=classic;html=1;rounded=0;exitX=0.25;exitY=1;exitDx=0;exitDy=0;entryX=0.5;entryY=0;entryDx=0;entryDy=0;" edge="1" parent="1" source="tBhQljCuQdXT5H8_TQD0-133" target="tBhQljCuQdXT5H8_TQD0-142">
          <mxGeometry width="50" height="50" relative="1" as="geometry">
            <mxPoint x="414" y="1180" as="sourcePoint" />
            <mxPoint x="280" y="1300" as="targetPoint" />
          </mxGeometry>
        </mxCell>
        <mxCell id="tBhQljCuQdXT5H8_TQD0-141" value="" style="endArrow=classic;html=1;rounded=0;exitX=0.75;exitY=1;exitDx=0;exitDy=0;entryX=0.5;entryY=0;entryDx=0;entryDy=0;" edge="1" parent="1" source="tBhQljCuQdXT5H8_TQD0-133" target="tBhQljCuQdXT5H8_TQD0-139">
          <mxGeometry width="50" height="50" relative="1" as="geometry">
            <mxPoint x="320" y="1265" as="sourcePoint" />
            <mxPoint x="290" y="1310" as="targetPoint" />
          </mxGeometry>
        </mxCell>
        <mxCell id="tBhQljCuQdXT5H8_TQD0-142" value="&lt;font style=&quot;font-size: 16px;&quot; color=&quot;#ffffff&quot;&gt;| 8 | 10 |&lt;/font&gt;" style="rounded=0;whiteSpace=wrap;html=1;strokeColor=#3333FF;fillColor=#3333FF;" vertex="1" parent="1">
          <mxGeometry x="200" y="1310" width="80" height="40" as="geometry" />
        </mxCell>
        <mxCell id="tBhQljCuQdXT5H8_TQD0-143" value="&lt;font style=&quot;font-size: 16px;&quot; color=&quot;#ffffff&quot;&gt;| 20 | 24 |&lt;/font&gt;" style="rounded=0;whiteSpace=wrap;html=1;strokeColor=#3333FF;fillColor=#3333FF;" vertex="1" parent="1">
          <mxGeometry x="400" y="1310" width="80" height="40" as="geometry" />
        </mxCell>
        <mxCell id="tBhQljCuQdXT5H8_TQD0-144" value="" style="endArrow=classic;html=1;rounded=0;exitX=0.25;exitY=1;exitDx=0;exitDy=0;entryX=0.5;entryY=0;entryDx=0;entryDy=0;" edge="1" parent="1" source="tBhQljCuQdXT5H8_TQD0-134" target="tBhQljCuQdXT5H8_TQD0-143">
          <mxGeometry width="50" height="50" relative="1" as="geometry">
            <mxPoint x="140" y="1250" as="sourcePoint" />
            <mxPoint x="230" y="1250" as="targetPoint" />
          </mxGeometry>
        </mxCell>
        <mxCell id="tBhQljCuQdXT5H8_TQD0-145" value="&lt;font style=&quot;font-size: 16px;&quot; color=&quot;#ffffff&quot;&gt;| 34 | 38 |&lt;/font&gt;" style="rounded=0;whiteSpace=wrap;html=1;strokeColor=#3333FF;fillColor=#3333FF;" vertex="1" parent="1">
          <mxGeometry x="576" y="1310" width="80" height="40" as="geometry" />
        </mxCell>
        <mxCell id="tBhQljCuQdXT5H8_TQD0-146" value="" style="endArrow=classic;html=1;rounded=0;entryX=0.5;entryY=0;entryDx=0;entryDy=0;exitX=0.75;exitY=1;exitDx=0;exitDy=0;" edge="1" parent="1" source="tBhQljCuQdXT5H8_TQD0-134">
          <mxGeometry width="50" height="50" relative="1" as="geometry">
            <mxPoint x="230" y="1180" as="sourcePoint" />
            <mxPoint x="620" y="1310" as="targetPoint" />
          </mxGeometry>
        </mxCell>
        <mxCell id="tBhQljCuQdXT5H8_TQD0-148" value="" style="shape=flexArrow;endArrow=classic;html=1;rounded=0;" edge="1" parent="1">
          <mxGeometry width="50" height="50" relative="1" as="geometry">
            <mxPoint x="846" y="1180.5" as="sourcePoint" />
            <mxPoint x="776" y="1180" as="targetPoint" />
          </mxGeometry>
        </mxCell>
      </root>
    </mxGraphModel>
  </diagram>
</mxfile>
